<svg width="31" height="30" viewBox="0 0 31 30" fill="none" xmlns="http://www.w3.org/2000/svg">
<path d="M27.1199 13.0662H3.47173C2.7895 13.0662 2.23611 13.6207 2.23611 14.3034C2.23611 14.9868 2.7895 15.5398 3.47173 15.5398H27.1199C27.8029 15.5398 28.3563 14.9868 28.3563 14.3034C28.3563 13.6207 27.8029 13.0662 27.1199 13.0662Z" fill="#FF715B"/>
<path d="M26.0799 12.3251C26.0799 6.77522 21.8732 2.13012 16.3541 1.58569C17.7814 2.30564 20.3815 4.07017 20.9791 7.60234C21.0141 7.80349 20.8782 7.99532 20.6764 8.03027H20.6136C20.4304 8.03493 20.2713 7.90601 20.2387 7.72583C19.5759 3.75408 15.9854 2.19225 15.2962 1.92664C14.607 2.19225 11.0158 3.75408 10.3538 7.72583C10.3235 7.90368 10.1691 8.03493 9.98822 8.03493H9.92613C9.72278 8.00619 9.58152 7.81902 9.61024 7.61632C9.61024 7.61166 9.61101 7.607 9.61257 7.60234C10.2024 4.07017 12.8025 2.30564 14.2314 1.58569C8.71457 2.134 4.511 6.77677 4.51178 12.3251H26.0799Z" fill="#FF715B"/>
<path d="M15.2969 22.3004C11.9726 22.3004 9.27867 19.6054 9.27711 16.2791H3.34586V17.5722L6.60564 18.6331C6.80666 19.3864 7.1078 20.1102 7.50053 20.7844L5.99016 23.8754L7.75976 25.6461L10.8115 24.0929C11.4883 24.4835 12.214 24.781 12.9692 24.9806L14.0861 28.2347H16.5883L17.6509 24.9728C18.4045 24.7709 19.1286 24.4711 19.8039 24.0804L22.8929 25.5863L24.6625 23.8179L23.1079 20.7618C23.4968 20.0854 23.7948 19.3608 23.995 18.6059L27.2471 17.4937V16.2791H21.3166C21.3166 19.6046 18.6218 22.3004 15.2992 22.3004C15.2976 22.3004 15.2969 22.3004 15.2969 22.3004Z" fill="#FFCBC1"/>
</svg>
