<svg width="31" height="30" viewBox="0 0 31 30" fill="none" xmlns="http://www.w3.org/2000/svg">
<g clip-path="url(#clip0_2118_21183)">
<path d="M3.27582 25.4203C3.27582 25.7959 3.57991 26.1 3.95551 26.1H25.7961C26.1717 26.1 26.4758 25.7959 26.4758 25.4203V20.6172H3.27582V25.4203Z" fill="#2DCA8C"/>
<path d="M14.8758 13.8202C17.8788 13.8202 20.3133 11.3857 20.3133 8.38272C20.3133 5.3797 17.8788 2.8999 14.8758 2.8999C11.8728 2.8999 9.43832 5.3797 9.43832 8.38272C9.43832 11.3857 11.8728 13.8202 14.8758 13.8202ZM14.8758 9.0624C13.7515 9.0624 12.8368 8.14766 12.8368 7.02334C12.8368 6.13833 13.4067 5.39103 14.1961 5.10942V4.25928C14.1961 3.88368 14.5002 3.57959 14.8758 3.57959C15.2514 3.57959 15.5555 3.88368 15.5555 4.25928V5.10942C16.3449 5.39103 16.9149 6.13833 16.9149 7.02334C16.9149 7.39894 16.6108 7.70303 16.2352 7.70303C15.8596 7.70303 15.5555 7.39894 15.5555 7.02334C15.5555 6.64827 15.2509 6.34365 14.8758 6.34365C14.5008 6.34365 14.1961 6.64827 14.1961 7.02334C14.1961 7.39841 14.5008 7.70303 14.8758 7.70303C16.0001 7.70303 16.9149 8.61777 16.9149 9.74209C16.9149 10.6271 16.3449 11.3744 15.5555 11.656V12.4608C15.5555 12.8364 15.2514 13.1405 14.8758 13.1405C14.5002 13.1405 14.1961 12.8364 14.1961 12.4608V11.656C13.4067 11.3744 12.8368 10.6271 12.8368 9.74209C12.8368 9.36649 13.1409 9.0624 13.5164 9.0624C13.892 9.0624 14.1961 9.36649 14.1961 9.74209C14.1961 10.1172 14.5008 10.4218 14.8758 10.4218C15.2509 10.4218 15.5555 10.1172 15.5555 9.74209C15.5555 9.36702 15.2509 9.0624 14.8758 9.0624Z" fill="#B1ECD4"/>
<path d="M6.04289 12.8884L3.49495 19.2578H26.2562L23.7084 12.8884C23.6048 12.6302 23.3553 12.4609 23.0772 12.4609H20.2785C19.0364 14.1017 17.0873 15.1797 14.8756 15.1797C12.664 15.1797 10.7149 14.1017 9.47284 12.4609H6.67408C6.39601 12.4609 6.14644 12.6302 6.04289 12.8884ZM9.43814 16.5391H20.3131C20.6887 16.5391 20.9928 16.8432 20.9928 17.2188C20.9928 17.5943 20.6887 17.8984 20.3131 17.8984H9.43814C9.06255 17.8984 8.75846 17.5943 8.75846 17.2188C8.75846 16.8432 9.06255 16.5391 9.43814 16.5391Z" fill="#2DCA8C"/>
</g>
<defs>
<clipPath id="clip0_2118_21183">
<rect width="23.2" height="23.2" fill="white" transform="translate(3.27573 2.8999)"/>
</clipPath>
</defs>
</svg>
