<svg width="31" height="30" viewBox="0 0 31 30" fill="none" xmlns="http://www.w3.org/2000/svg">
<g clip-path="url(#clip0_2118_21194)">
<path d="M5.28234 10.6667C4.87573 11.5507 4.87573 12.5564 4.87573 14.568V20.85C4.87573 23.6436 4.87573 25.0403 5.74356 25.9081C6.59592 26.7604 7.9585 26.7756 10.6535 26.7759V19.3686C10.6535 18.0596 11.7148 16.9982 13.0239 16.9982H17.4684C18.7774 16.9982 19.8387 18.0596 19.8387 19.3686V26.7759C22.5337 26.7756 23.8963 26.7604 24.7486 25.9081C25.6164 25.0403 25.6164 23.6436 25.6164 20.85V14.568C25.6164 12.5564 25.6164 11.5507 25.2099 10.6667C24.8033 9.78261 24.0396 9.12808 22.5124 7.81901L21.0309 6.54917C18.2705 4.18306 16.8902 3 15.2461 3C13.602 3 12.2218 4.18306 9.46129 6.54917L7.97981 7.81901C6.45257 9.12808 5.68895 9.78261 5.28234 10.6667Z" fill="#FFBE3D"/>
<path d="M18.061 26.7758V19.3685C18.061 19.0412 17.7958 18.7759 17.4685 18.7759H13.024C12.6967 18.7759 12.4314 19.0412 12.4314 19.3685V26.7758H18.061Z" fill="#F6DBA3"/>
</g>
<defs>
<clipPath id="clip0_2118_21194">
<rect width="21.3333" height="24" fill="white" transform="translate(4.87573 3)"/>
</clipPath>
</defs>
</svg>
