<svg width="258" height="24" viewBox="0 0 258 24" fill="none" xmlns="http://www.w3.org/2000/svg">
<path d="M131.806 11.9965C131.84 13.718 131.524 15.4285 130.877 17.0239C130.29 18.4333 129.374 19.6817 128.206 20.6647C126.973 21.6839 125.543 22.4374 124.005 22.8779C122.201 23.3996 120.33 23.6528 118.452 23.6293C116.569 23.6513 114.694 23.3982 112.885 22.8779C111.337 22.437 109.895 21.6838 108.65 20.6647C107.477 19.6813 106.554 18.4335 105.958 17.0239C105.3 15.4314 104.979 13.7195 105.016 11.9965C104.978 10.2758 105.299 8.56606 105.958 6.97594C106.556 5.56547 107.478 4.31581 108.65 3.32833C109.897 2.31183 111.338 1.55893 112.885 1.11517C114.695 0.601906 116.57 0.35568 118.452 0.384283C120.329 0.358502 122.201 0.609376 124.005 1.12883C125.542 1.57115 126.972 2.32443 128.206 3.34199C129.373 4.32856 130.289 5.57892 130.877 6.9896C131.522 8.5784 131.839 10.2818 131.806 11.9965ZM126.43 11.9965C126.429 11.1624 126.311 10.3325 126.082 9.53063C125.847 8.70556 125.421 7.94738 124.838 7.31747C124.154 6.60839 123.318 6.06414 122.393 5.72591C121.125 5.29627 119.789 5.10633 118.452 5.16579C117.504 5.15097 116.557 5.24494 115.631 5.44585C114.895 5.60092 114.186 5.86329 113.527 6.22456C112.453 6.80578 111.594 7.71539 111.074 8.82024C110.837 9.32713 110.665 9.86186 110.562 10.4118C110.466 10.9507 110.415 11.4969 110.412 12.0443C110.415 12.6009 110.465 13.1562 110.562 13.7042C110.662 14.2571 110.835 14.7945 111.074 15.3026C111.319 15.8242 111.641 16.3056 112.031 16.7302C112.464 17.1909 112.969 17.5784 113.527 17.8778C114.189 18.2308 114.897 18.4906 115.631 18.6497C116.558 18.8472 117.504 18.9412 118.452 18.9297C119.792 18.972 121.129 18.7635 122.393 18.3149C123.318 17.9789 124.154 17.437 124.838 16.7302C125.421 16.1003 125.847 15.3421 126.082 14.5171C126.316 13.6975 126.433 12.8489 126.43 11.9965Z" fill="#484A4D"/>
<path d="M158.186 8.49225C158.196 9.52358 158.051 10.5505 157.756 11.5388C157.493 12.4334 157.026 13.2543 156.39 13.9363C155.697 14.6409 154.851 15.1762 153.917 15.5006C152.728 15.9031 151.477 16.0927 150.222 16.0607H141.396V23.0485H136.075V0.944294H150.222C151.476 0.913712 152.726 1.10091 153.917 1.49758C154.851 1.82197 155.697 2.35725 156.39 3.06182C157.024 3.7423 157.492 4.56069 157.756 5.45258C158.052 6.43824 158.197 7.4631 158.186 8.49225ZM152.817 8.58788C152.826 8.13594 152.759 7.68572 152.619 7.25589C152.5 6.89807 152.279 6.58254 151.984 6.3474C151.64 6.09045 151.243 5.91312 150.823 5.82827C150.244 5.70302 149.653 5.64571 149.06 5.6575H141.383V11.3543H149.06C149.651 11.3618 150.241 11.3161 150.823 11.2177C151.241 11.151 151.638 10.9898 151.984 10.7464C152.277 10.5322 152.498 10.2346 152.619 9.89255C152.761 9.47025 152.828 9.02642 152.817 8.58105V8.58788Z" fill="#484A4D"/>
<path d="M173.029 5.76012V23.0487H167.715V5.76012H159.361V0.978607H181.397V5.76012H173.029Z" fill="#484A4D"/>
<path d="M184.32 23.0484V0.944153H189.641V23.0484H184.32Z" fill="#484A4D"/>
<path d="M200.53 0.944383V3.37612C201.002 3.04142 201.507 2.69305 202.06 2.34468C202.627 1.97829 203.22 1.65628 203.836 1.38155C204.5 1.09844 205.185 0.869994 205.886 0.698476C206.67 0.507314 207.476 0.413256 208.283 0.418416C209.029 0.404176 209.773 0.50321 210.49 0.712138C211.075 0.886794 211.63 1.14936 212.136 1.49084C212.575 1.78728 212.97 2.14365 213.311 2.5496C213.622 2.91729 213.905 3.30773 214.158 3.71766C214.841 3.21902 215.524 2.77502 216.166 2.35151C216.809 1.94465 217.483 1.58837 218.181 1.28592C218.84 0.990867 219.526 0.762051 220.23 0.602846C220.943 0.444737 221.672 0.366839 222.402 0.370601C223.505 0.351046 224.602 0.541121 225.633 0.930721C226.536 1.27619 227.358 1.8014 228.051 2.47447C228.708 3.13167 229.222 3.91775 229.561 4.78325C229.917 5.68783 230.096 6.65264 230.087 7.62484V23.0486H224.766V8.49234C224.78 7.97202 224.699 7.45352 224.527 6.96226C224.379 6.56766 224.146 6.21072 223.844 5.91715C223.573 5.65077 223.246 5.4478 222.887 5.32288C222.512 5.1931 222.117 5.12841 221.719 5.13162C219.807 5.13162 217.628 6.09475 215.182 8.02102C215.22 8.24698 215.243 8.47516 215.251 8.70409C215.251 8.95 215.251 9.1959 215.251 9.44181V23.1033H209.984V8.36256C209.997 7.85067 209.913 7.34096 209.738 6.85979C209.595 6.4748 209.361 6.13025 209.055 5.85568C208.778 5.5984 208.446 5.40694 208.085 5.29556C207.706 5.18488 207.312 5.12966 206.917 5.13162C206.385 5.13433 205.855 5.21488 205.346 5.3707C204.773 5.54747 204.218 5.7761 203.686 6.05377C203.111 6.35076 202.56 6.69339 202.04 7.07838C201.499 7.47678 200.984 7.90792 200.496 8.36939V23.0555H195.182V0.944383H200.53Z" fill="#484A4D"/>
<path d="M252.286 23.0488V20.8766C251.589 21.3036 250.858 21.6737 250.1 21.9832C249.311 22.3084 248.501 22.5822 247.676 22.8029C246.821 23.0323 245.951 23.2012 245.073 23.3084C244.167 23.4247 243.254 23.4817 242.341 23.4792C241.307 23.483 240.276 23.3707 239.267 23.1444C238.334 22.9396 237.446 22.5695 236.644 22.0515C235.881 21.5469 235.248 20.8679 234.8 20.0706C234.314 19.1502 234.079 18.1186 234.116 17.0788C234.081 15.7489 234.482 14.4439 235.257 13.3628C236.124 12.2655 237.271 11.4229 238.577 10.9243C240.395 10.2066 242.295 9.71564 244.233 9.46249C246.51 9.12096 249.206 8.85228 252.32 8.65647V8.19198C252.316 7.81515 252.227 7.44412 252.061 7.10589C251.849 6.70403 251.524 6.37368 251.125 6.15642C250.544 5.83133 249.914 5.60076 249.26 5.47335C248.268 5.28517 247.258 5.20048 246.248 5.22061C245.291 5.21997 244.336 5.27471 243.386 5.38455C242.468 5.49332 241.556 5.64835 240.654 5.84904C239.779 6.0403 238.946 6.26571 238.16 6.53211C237.375 6.79851 236.671 7.05808 236.029 7.33814V2.02383C236.712 1.83257 237.45 1.64131 238.276 1.46371C239.103 1.28611 239.977 1.12217 240.872 0.985558C241.767 0.848943 242.682 0.746482 243.604 0.664513C244.527 0.582545 245.408 0.54156 246.248 0.54156C247.783 0.530556 249.316 0.686299 250.818 1.00605C252.081 1.26771 253.288 1.75105 254.383 2.43367C255.361 3.04129 256.173 3.8814 256.747 4.87907C257.342 5.9563 257.637 7.17358 257.601 8.40373V23.0488H252.286ZM252.286 12.9598C250.246 13.0463 248.509 13.1693 247.074 13.3287C245.881 13.4559 244.696 13.6451 243.522 13.8956C242.757 14.0483 242.009 14.2772 241.289 14.5787C240.846 14.7624 240.438 15.0187 240.08 15.3369C239.844 15.541 239.673 15.8092 239.588 16.1088C239.527 16.3315 239.495 16.5611 239.492 16.7919C239.491 17.0752 239.57 17.3531 239.718 17.5945C239.866 17.8358 240.079 18.031 240.333 18.158C240.719 18.3675 241.136 18.5129 241.569 18.5883C242.213 18.7088 242.867 18.7638 243.522 18.7523C244.377 18.7532 245.229 18.6777 246.07 18.5269C246.874 18.3844 247.664 18.1765 248.434 17.9053C249.157 17.6538 249.858 17.3431 250.531 16.9763C251.145 16.6401 251.732 16.2564 252.286 15.8287V12.9598Z" fill="#484A4D"/>
<path d="M19.1126 12.6181C18.612 12.0871 18.0011 11.6721 17.323 11.4023C17.0953 11.3157 16.8676 11.2338 16.6399 11.1564H16.6809C17.2001 10.9245 17.6653 10.5872 18.0471 10.1659C18.4134 9.74032 18.6857 9.2422 18.8463 8.70412C19.0267 8.07835 19.1119 7.42899 19.099 6.77786C19.111 6.05162 19.0096 5.32797 18.7984 4.63301C18.6203 4.05256 18.3354 3.51047 17.9583 3.03462C17.6059 2.60044 17.1749 2.23661 16.6878 1.96219C16.2082 1.69167 15.6964 1.48282 15.1645 1.34059C14.6161 1.19513 14.0561 1.09686 13.4909 1.04687C12.924 0.992228 12.3502 0.964905 11.7833 0.964905H0.396484V23.0487H12.0087C12.7464 23.0487 13.4704 23.0487 14.1603 22.953C14.8294 22.8938 15.4922 22.7773 16.1413 22.6047C16.741 22.4488 17.3192 22.2194 17.8626 21.9216C18.3888 21.6236 18.8527 21.227 19.2288 20.7535C19.6303 20.2436 19.9359 19.665 20.1305 19.0458C20.3594 18.3029 20.4678 17.528 20.4515 16.7507C20.4633 15.9715 20.3551 15.195 20.1305 14.4488C19.9322 13.7702 19.5843 13.1447 19.1126 12.6181ZM2.94433 12.6796H11.633C12.5974 12.6664 13.5606 12.7488 14.5087 12.9255C15.1817 13.0411 15.8249 13.2896 16.4008 13.6564C16.8494 13.9549 17.2045 14.374 17.4254 14.8654C17.671 15.4556 17.7874 16.0914 17.767 16.7302C17.7817 17.3164 17.6867 17.9002 17.4869 18.4516C17.3045 18.9012 16.9871 19.283 16.5784 19.5445C16.032 19.8914 15.4208 20.1238 14.782 20.2276C13.8204 20.3864 12.8466 20.4595 11.8721 20.4461H2.94433V12.6796ZM16.3803 8.13034C16.257 8.51395 16.0185 8.85026 15.6973 9.09347C15.2179 9.44306 14.6714 9.6896 14.092 9.81753C13.1216 10.0336 12.1283 10.1299 11.1344 10.1044H2.9375V3.58107H11.1344C11.8837 3.57252 12.6327 3.62047 13.3749 3.72452C13.8943 3.79625 14.4049 3.92217 14.8981 4.10021C15.2264 4.21853 15.5298 4.39689 15.7929 4.62618C15.9902 4.80649 16.1524 5.0219 16.2711 5.26143C16.3787 5.47596 16.4502 5.70674 16.4828 5.94451C16.5212 6.2206 16.5395 6.49911 16.5375 6.77786C16.5445 7.22911 16.4916 7.6793 16.3803 8.11668V8.13034Z" fill="#F37327"/>
<path d="M42.8771 16.4636C42.3056 16.9665 41.7058 17.4363 41.0806 17.8707C40.2856 18.4245 39.4473 18.9134 38.5738 19.3325C37.6338 19.7759 36.6581 20.1392 35.657 20.4186C33.8264 20.9092 31.907 20.97 30.0489 20.5962C29.4042 20.4647 28.8 20.1813 28.2866 19.7696C27.7855 19.339 27.4082 18.7826 27.1937 18.1576C26.9033 17.2654 26.7738 16.3287 26.8112 15.3911V0.944153H24.1882V15.8147C24.181 16.8672 24.3519 17.9134 24.6937 18.909C25.0258 19.8372 25.5574 20.6812 26.2511 21.3817C26.9831 22.1003 27.8648 22.6484 28.8331 22.9869C29.9814 23.3842 31.1907 23.5761 32.4056 23.5539C33.5568 23.5617 34.7043 23.424 35.821 23.144C36.8448 22.8813 37.8436 22.5293 38.806 22.0921C39.702 21.6866 40.5672 21.2163 41.3948 20.685C41.9276 20.3503 42.44 20.0019 42.9249 19.6808V23.0484H45.5753V0.944153H42.9249L42.8771 16.4636Z" fill="#F37327"/>
<path d="M53.3549 0.944153H50.7456V23.0416H53.3549V0.944153Z" fill="#F37327"/>
<path d="M63.9084 19.9951C63.2495 19.8657 62.6367 19.564 62.1324 19.1207C61.7338 18.7205 61.4669 18.2081 61.3674 17.6521C61.2196 16.8686 61.1509 16.0723 61.1624 15.275V0.944153H58.5531V15.6439C58.537 16.7349 58.6633 17.8233 58.9288 18.8816C59.1548 19.7854 59.6278 20.6085 60.2949 21.2587C61.0345 21.9208 61.9262 22.39 62.8906 22.6249C64.1879 22.9336 65.5192 23.0759 66.8524 23.0484H76.4154V20.3161H67.2213C66.1082 20.3394 64.9963 20.2316 63.9084 19.9951Z" fill="#F37327"/>
<path d="M97.7274 3.28748C96.6405 2.41125 95.3705 1.79032 94.0115 1.47051C92.5243 1.11133 90.9989 0.934702 89.469 0.944542H79.0386V23.0488H89.4895C90.5322 23.05 91.5735 22.9724 92.6044 22.8165C93.5556 22.6744 94.488 22.427 95.3845 22.0788C96.2326 21.7413 97.0267 21.281 97.7411 20.7127C98.4655 20.1234 99.0805 19.4113 99.558 18.6088C100.083 17.7109 100.47 16.7392 100.706 15.7262C100.991 14.504 101.126 13.2516 101.109 11.9967C101.162 10.2021 100.86 8.41456 100.221 6.737C99.69 5.39741 98.8329 4.21165 97.7274 3.28748ZM98.4651 11.9967C98.5009 13.405 98.2691 14.8073 97.7821 16.1293C97.4055 17.1188 96.7824 17.9959 95.9719 18.6771C95.1573 19.3441 94.1984 19.8119 93.1713 20.0433C91.9525 20.3211 90.7055 20.4564 89.4554 20.4463H81.6274V3.5812H89.4554C90.3123 3.57704 91.1683 3.63411 92.017 3.75197C92.7675 3.84722 93.5037 4.033 94.2096 4.30526C94.8489 4.55128 95.4476 4.89208 95.9856 5.31621C96.5154 5.74081 96.9624 6.25952 97.3039 6.84629C97.6918 7.52875 97.975 8.26557 98.1441 9.03213C98.3632 10.0049 98.4709 10.9995 98.4651 11.9967Z" fill="#F37327"/>
</svg>
