<svg width="74" height="75" viewBox="0 0 74 75" fill="none" xmlns="http://www.w3.org/2000/svg">
    <g filter="url(#filter0_d_0_1)">
        <path fill-rule="evenodd" clip-rule="evenodd" d="M12 26.4446V19.4446C12 17.5116 12.6834 15.8617 14.0503 14.4948C15.4171 13.128 17.067 12.4446 19 12.4446H54.69C56.623 12.4446 58.2729 13.128 59.6397 14.4948C61.0066 15.8617 61.69 17.5116 61.69 19.4446V55.1346C61.69 57.0676 61.0066 58.7175 59.6397 60.0843C58.2729 61.4512 56.623 62.1346 54.69 62.1346H19C17.067 62.1346 15.4171 61.4512 14.0503 60.0843C12.6834 58.7175 12 57.0676 12 55.1346V26.4446Z" fill="#FBFBFC"/>
    </g>
    <path d="M37 27.1612C40.2063 27.1612 40.5859 27.1752 41.8469 27.2315C43.0188 27.2831 43.6516 27.4799 44.0734 27.644C44.6313 27.8596 45.0344 28.1221 45.4516 28.5393C45.8734 28.9612 46.1313 29.3596 46.3469 29.9174C46.5109 30.3393 46.7078 30.9768 46.7594 32.144C46.8156 33.4096 46.8297 33.7893 46.8297 36.9909C46.8297 40.1971 46.8156 40.5768 46.7594 41.8377C46.7078 43.0096 46.5109 43.6424 46.3469 44.0643C46.1313 44.6221 45.8688 45.0252 45.4516 45.4424C45.0297 45.8643 44.6313 46.1221 44.0734 46.3377C43.6516 46.5018 43.0141 46.6987 41.8469 46.7502C40.5813 46.8065 40.2016 46.8206 37 46.8206C33.7938 46.8206 33.4141 46.8065 32.1531 46.7502C30.9813 46.6987 30.3484 46.5018 29.9266 46.3377C29.3688 46.1221 28.9656 45.8596 28.5484 45.4424C28.1266 45.0206 27.8688 44.6221 27.6531 44.0643C27.4891 43.6424 27.2922 43.0049 27.2406 41.8377C27.1844 40.5721 27.1703 40.1924 27.1703 36.9909C27.1703 33.7846 27.1844 33.4049 27.2406 32.144C27.2922 30.9721 27.4891 30.3393 27.6531 29.9174C27.8688 29.3596 28.1313 28.9565 28.5484 28.5393C28.9703 28.1174 29.3688 27.8596 29.9266 27.644C30.3484 27.4799 30.9859 27.2831 32.1531 27.2315C33.4141 27.1752 33.7938 27.1612 37 27.1612ZM37 25.0002C33.7422 25.0002 33.3344 25.0143 32.0547 25.0706C30.7797 25.1268 29.9031 25.3331 29.1438 25.6284C28.3516 25.9377 27.6813 26.3456 27.0156 27.0159C26.3453 27.6815 25.9375 28.3518 25.6281 29.1393C25.3328 29.9034 25.1266 30.7752 25.0703 32.0502C25.0141 33.3346 25 33.7424 25 37.0002C25 40.2581 25.0141 40.6659 25.0703 41.9456C25.1266 43.2206 25.3328 44.0971 25.6281 44.8565C25.9375 45.6487 26.3453 46.319 27.0156 46.9846C27.6813 47.6502 28.3516 48.0627 29.1391 48.3674C29.9031 48.6627 30.775 48.869 32.05 48.9252C33.3297 48.9815 33.7375 48.9956 36.9953 48.9956C40.2531 48.9956 40.6609 48.9815 41.9406 48.9252C43.2156 48.869 44.0922 48.6627 44.8516 48.3674C45.6391 48.0627 46.3094 47.6502 46.975 46.9846C47.6406 46.319 48.0531 45.6487 48.3578 44.8612C48.6531 44.0971 48.8594 43.2252 48.9156 41.9502C48.9719 40.6706 48.9859 40.2627 48.9859 37.0049C48.9859 33.7471 48.9719 33.3393 48.9156 32.0596C48.8594 30.7846 48.6531 29.9081 48.3578 29.1487C48.0625 28.3518 47.6547 27.6815 46.9844 27.0159C46.3188 26.3502 45.6484 25.9377 44.8609 25.6331C44.0969 25.3377 43.225 25.1315 41.95 25.0752C40.6656 25.0143 40.2578 25.0002 37 25.0002Z" fill="#686978"/>
    <path d="M37 30.8362C33.5969 30.8362 30.8359 33.5971 30.8359 37.0002C30.8359 40.4034 33.5969 43.1643 37 43.1643C40.4031 43.1643 43.1641 40.4034 43.1641 37.0002C43.1641 33.5971 40.4031 30.8362 37 30.8362ZM37 40.9987C34.7922 40.9987 33.0016 39.2081 33.0016 37.0002C33.0016 34.7924 34.7922 33.0018 37 33.0018C39.2078 33.0018 40.9984 34.7924 40.9984 37.0002C40.9984 39.2081 39.2078 40.9987 37 40.9987Z" fill="#686978"/>
    <path d="M44.8469 30.5924C44.8469 31.3893 44.2 32.0315 43.4078 32.0315C42.6109 32.0315 41.9688 31.3846 41.9688 30.5924C41.9688 29.7955 42.6156 29.1533 43.4078 29.1533C44.2 29.1533 44.8469 29.8002 44.8469 30.5924Z" fill="#686978"/>
    <defs>
        <filter id="filter0_d_0_1" x="0" y="0.44458" width="73.6899" height="73.6899" filterUnits="userSpaceOnUse" color-interpolation-filters="sRGB">
            <feFlood flood-opacity="0" result="BackgroundImageFix"/>
            <feColorMatrix in="SourceAlpha" type="matrix" values="0 0 0 0 0 0 0 0 0 0 0 0 0 0 0 0 0 0 127 0" result="hardAlpha"/>
            <feOffset/>
            <feGaussianBlur stdDeviation="6"/>
            <feComposite in2="hardAlpha" operator="out"/>
            <feColorMatrix type="matrix" values="0 0 0 0 0.891667 0 0 0 0 0.891667 0 0 0 0 0.891667 0 0 0 0.9 0"/>
            <feBlend mode="normal" in2="BackgroundImageFix" result="effect1_dropShadow_0_1"/>
            <feBlend mode="normal" in="SourceGraphic" in2="effect1_dropShadow_0_1" result="shape"/>
        </filter>
    </defs>
</svg>
