<svg width="74" height="75" viewBox="0 0 74 75" fill="none" xmlns="http://www.w3.org/2000/svg">
    <g filter="url(#filter0_d_0_1)">
        <path fill-rule="evenodd" clip-rule="evenodd" d="M12 26.5319V19.4883C12 17.5432 12.6877 15.883 14.063 14.5076C15.4384 13.1323 17.0986 12.4446 19.0437 12.4446H54.9563C56.9014 12.4446 58.5616 13.1323 59.937 14.5076C61.3123 15.883 62 17.5432 62 19.4883V55.4009C62 57.346 61.3123 59.0062 59.937 60.3815C58.5616 61.7569 56.9014 62.4446 54.9563 62.4446H19.0437C17.0986 62.4446 15.4384 61.7569 14.063 60.3815C12.6877 59.0062 12 57.346 12 55.4009V26.5319Z" fill="#FBFBFC"/>
    </g>
    <path d="M45.2031 27.4446H28.7969C28.5712 27.4446 28.3455 27.4967 28.1198 27.6008C27.8941 27.6876 27.6944 27.8092 27.5208 27.9654C27.3646 28.139 27.2344 28.3387 27.1302 28.5644C27.0434 28.7901 27 29.0158 27 29.2415V45.6477C27 45.8734 27.0434 46.0991 27.1302 46.3248C27.2344 46.5505 27.3646 46.7501 27.5208 46.9237C27.6944 47.08 27.8941 47.2102 28.1198 47.3144C28.3455 47.4012 28.5712 47.4446 28.7969 47.4446H45.2031C45.4288 47.4446 45.6545 47.4012 45.8802 47.3144C46.1059 47.2102 46.3056 47.08 46.4792 46.9237C46.6354 46.7501 46.7569 46.5505 46.8438 46.3248C46.9479 46.0991 47 45.8734 47 45.6477V29.2415C47 29.0158 46.9479 28.7901 46.8438 28.5644C46.7569 28.3387 46.6354 28.139 46.4792 27.9654C46.3056 27.8092 46.1059 27.6876 45.8802 27.6008C45.6545 27.4967 45.4288 27.4446 45.2031 27.4446ZM33.1719 44.7102C33.1719 44.7449 33.1719 44.7796 33.1719 44.8144C33.1719 44.8491 33.1632 44.8838 33.1458 44.9185C33.1285 44.9533 33.1111 44.988 33.0938 45.0227C33.0764 45.0401 33.059 45.0661 33.0417 45.1008C33.0069 45.1182 32.9722 45.1356 32.9375 45.1529C32.9201 45.1703 32.8941 45.1876 32.8594 45.205C32.8247 45.2224 32.7899 45.2397 32.7552 45.2571C32.7378 45.2571 32.7118 45.2571 32.6771 45.2571H30.4115C30.342 45.2571 30.2726 45.2484 30.2031 45.231C30.151 45.1963 30.099 45.1529 30.0469 45.1008C29.9948 45.0487 29.9514 44.988 29.9167 44.9185C29.8993 44.8491 29.8906 44.7796 29.8906 44.7102V35.3092C29.8906 35.2397 29.8993 35.179 29.9167 35.1269C29.9514 35.0574 29.9948 34.9967 30.0469 34.9446C30.099 34.8925 30.151 34.8578 30.2031 34.8404C30.2726 34.8057 30.342 34.7883 30.4115 34.7883H32.6771C32.7118 34.7883 32.7378 34.797 32.7552 34.8144C32.7899 34.8144 32.8247 34.8231 32.8594 34.8404C32.8941 34.8404 32.9201 34.8578 32.9375 34.8925C32.9722 34.9099 33.0069 34.9272 33.0417 34.9446C33.059 34.9619 33.0764 34.988 33.0938 35.0227C33.1111 35.0574 33.1285 35.0921 33.1458 35.1269C33.1632 35.1616 33.1719 35.1963 33.1719 35.231C33.1719 35.2484 33.1719 35.2744 33.1719 35.3092V44.7102ZM31.5573 33.9029C31.349 33.9029 31.1406 33.8769 30.9323 33.8248C30.7413 33.7553 30.559 33.6599 30.3854 33.5383C30.2118 33.4168 30.0556 33.2779 29.9167 33.1217C29.7778 32.9654 29.6736 32.7831 29.6042 32.5748C29.5174 32.3838 29.4653 32.1842 29.4479 31.9758C29.4306 31.7675 29.4392 31.5592 29.474 31.3508C29.526 31.1425 29.5955 30.9515 29.6823 30.7779C29.7865 30.5869 29.9167 30.4133 30.0729 30.2571C30.2118 30.1182 30.3767 29.9967 30.5677 29.8925C30.7587 29.7883 30.9497 29.7189 31.1406 29.6842C31.349 29.6494 31.5573 29.6408 31.7656 29.6581C31.9913 29.6755 32.1997 29.7276 32.3906 29.8144C32.5816 29.8838 32.7552 29.988 32.9115 30.1269C33.0851 30.2658 33.224 30.422 33.3281 30.5956C33.4497 30.7692 33.5365 30.9602 33.5885 31.1685C33.658 31.3595 33.6927 31.5592 33.6927 31.7675C33.6927 31.9064 33.6753 32.0453 33.6406 32.1842C33.6233 32.3231 33.5885 32.4619 33.5365 32.6008C33.4844 32.7224 33.4149 32.8439 33.3281 32.9654C33.2587 33.0869 33.1719 33.1911 33.0677 33.2779C32.9635 33.3821 32.8507 33.4776 32.7292 33.5644C32.6076 33.6338 32.4861 33.6946 32.3646 33.7467C32.2257 33.7987 32.0868 33.8421 31.9479 33.8769C31.809 33.8942 31.6701 33.9029 31.5312 33.9029H31.5573ZM44.9427 44.7623C44.9427 44.8317 44.9253 44.8925 44.8906 44.9446C44.8733 44.9967 44.8385 45.0487 44.7865 45.1008C44.7344 45.1529 44.6823 45.1963 44.6302 45.231C44.5781 45.2484 44.5174 45.2571 44.4479 45.2571H42C41.9826 45.2571 41.9566 45.2571 41.9219 45.2571C41.8872 45.2397 41.8524 45.2224 41.8177 45.205C41.8003 45.205 41.7743 45.1963 41.7396 45.179C41.7222 45.1616 41.6962 45.1356 41.6615 45.1008C41.6441 45.0835 41.6267 45.0661 41.6094 45.0487C41.592 45.014 41.5747 44.9793 41.5573 44.9446C41.5573 44.9272 41.5486 44.9012 41.5313 44.8665C41.5313 44.8317 41.5313 44.797 41.5313 44.7623V40.3612C41.5313 40.0314 41.4792 39.4671 41.375 38.6685C41.2882 37.8699 40.7674 37.4706 39.8125 37.4706C39.066 37.4706 38.5799 37.7571 38.3542 38.33C38.1285 38.8856 37.9983 39.3369 37.9635 39.6842V44.7623C37.9635 44.8317 37.9462 44.9012 37.9115 44.9706C37.8941 45.0227 37.8594 45.0661 37.8073 45.1008C37.7726 45.1529 37.7205 45.1963 37.651 45.231C37.599 45.2484 37.5382 45.2571 37.4688 45.2571H35.151C35.0816 45.2571 35.0208 45.2484 34.9688 45.231C34.9167 45.1963 34.8646 45.1529 34.8125 45.1008C34.7604 45.0487 34.7257 44.9967 34.7083 44.9446C34.691 44.8925 34.6736 44.8317 34.6563 44.7623V35.2831C34.6736 35.2137 34.691 35.1529 34.7083 35.1008C34.7257 35.0314 34.7604 34.9793 34.8125 34.9446C34.8646 34.8925 34.9167 34.8578 34.9688 34.8404C35.0208 34.8057 35.0816 34.7883 35.151 34.7883H37.4688C37.5382 34.7883 37.599 34.8057 37.651 34.8404C37.7205 34.8578 37.7726 34.8838 37.8073 34.9185C37.8594 34.9706 37.8941 35.0314 37.9115 35.1008C37.9462 35.1529 37.9635 35.2137 37.9635 35.2831V36.0904C38.1372 35.8474 38.3368 35.6303 38.5625 35.4394C38.7882 35.231 39.0399 35.0661 39.3177 34.9446C39.5955 34.8057 39.8819 34.7189 40.1771 34.6842C40.4722 34.6321 40.776 34.6147 41.0885 34.6321C42.0434 34.6321 42.7813 34.8317 43.3021 35.231C43.8229 35.6303 44.1962 36.1165 44.4219 36.6894C44.6649 37.2623 44.8038 37.8699 44.8385 38.5123C44.8733 39.1546 44.8906 39.7189 44.8906 40.205V44.7623H44.9427Z" fill="#686978"/>
    <defs>
        <filter id="filter0_d_0_1" x="0" y="0.44458" width="74" height="74" filterUnits="userSpaceOnUse" color-interpolation-filters="sRGB">
            <feFlood flood-opacity="0" result="BackgroundImageFix"/>
            <feColorMatrix in="SourceAlpha" type="matrix" values="0 0 0 0 0 0 0 0 0 0 0 0 0 0 0 0 0 0 127 0" result="hardAlpha"/>
            <feOffset/>
            <feGaussianBlur stdDeviation="6"/>
            <feComposite in2="hardAlpha" operator="out"/>
            <feColorMatrix type="matrix" values="0 0 0 0 0.891667 0 0 0 0 0.891667 0 0 0 0 0.891667 0 0 0 0.9 0"/>
            <feBlend mode="normal" in2="BackgroundImageFix" result="effect1_dropShadow_0_1"/>
            <feBlend mode="normal" in="SourceGraphic" in2="effect1_dropShadow_0_1" result="shape"/>
        </filter>
    </defs>
</svg>
