<svg width="74" height="75" viewBox="0 0 74 75" fill="none" xmlns="http://www.w3.org/2000/svg">
    <g filter="url(#filter0_d_0_1)">
        <path fill-rule="evenodd" clip-rule="evenodd" d="M12 26.5319V19.4883C12 17.5432 12.6877 15.883 14.063 14.5076C15.4384 13.1323 17.0986 12.4446 19.0437 12.4446H54.9563C56.9014 12.4446 58.5616 13.1323 59.9369 14.5076C61.3123 15.883 62 17.5432 62 19.4883V55.4009C62 57.346 61.3123 59.0062 59.9369 60.3815C58.5616 61.7569 56.9014 62.4446 54.9563 62.4446H19.0437C17.0986 62.4446 15.4384 61.7569 14.063 60.3815C12.6877 59.0062 12 57.346 12 55.4009V26.5319Z" fill="#FBFBFC"/>
    </g>
    <path d="M32.6757 48.1673C41.7888 48.1673 46.7733 40.6172 46.7733 34.0697C46.7733 33.8552 46.7733 33.6418 46.7588 33.4292C47.7285 32.7279 48.5656 31.8594 49.2308 30.8645C48.3266 31.2654 47.3673 31.5282 46.385 31.6441C47.4194 31.025 48.1935 30.051 48.5633 28.9036C47.5907 29.4808 46.5267 29.8875 45.4171 30.1062C44.67 29.3119 43.682 28.7859 42.6059 28.6097C41.5298 28.4334 40.4256 28.6167 39.4642 29.1313C38.5028 29.6458 37.7377 30.4628 37.2875 31.456C36.8372 32.4491 36.7268 33.5629 36.9733 34.6251C35.0035 34.5263 33.0764 34.0144 31.3172 33.1226C29.558 32.2307 28.006 30.9789 26.7619 29.4484C26.1283 30.5392 25.9342 31.8304 26.2192 33.0592C26.5042 34.288 27.2468 35.362 28.2959 36.0625C27.5073 36.0394 26.736 35.8267 26.047 35.4424V35.5052C26.0474 36.6491 26.4434 37.7577 27.1679 38.643C27.8924 39.5282 28.9008 40.1356 30.0221 40.3622C29.2926 40.5611 28.5273 40.5902 27.7849 40.4472C28.1016 41.4316 28.718 42.2924 29.548 42.9094C30.3779 43.5263 31.3799 43.8684 32.4139 43.888C31.3866 44.6955 30.2102 45.2925 28.9519 45.6449C27.6937 45.9973 26.3783 46.0982 25.0811 45.9417C27.3469 47.3957 29.9834 48.167 32.6757 48.1635" fill="#686978"/>
    <defs>
        <filter id="filter0_d_0_1" x="0" y="0.44458" width="74" height="74" filterUnits="userSpaceOnUse" color-interpolation-filters="sRGB">
            <feFlood flood-opacity="0" result="BackgroundImageFix"/>
            <feColorMatrix in="SourceAlpha" type="matrix" values="0 0 0 0 0 0 0 0 0 0 0 0 0 0 0 0 0 0 127 0" result="hardAlpha"/>
            <feOffset/>
            <feGaussianBlur stdDeviation="6"/>
            <feComposite in2="hardAlpha" operator="out"/>
            <feColorMatrix type="matrix" values="0 0 0 0 0.891667 0 0 0 0 0.891667 0 0 0 0 0.891667 0 0 0 0.9 0"/>
            <feBlend mode="normal" in2="BackgroundImageFix" result="effect1_dropShadow_0_1"/>
            <feBlend mode="normal" in="SourceGraphic" in2="effect1_dropShadow_0_1" result="shape"/>
        </filter>
    </defs>
</svg>
